<svg xmlns="http://www.w3.org/2000/svg" viewBox="0 0 599.9 158.75"><defs><style>.cls-1{isolation:isolate;}.cls-2{opacity:0.25;}.cls-2,.cls-4{mix-blend-mode:multiply;}.cls-3{fill:#1e823d;}.cls-4{opacity:0.75;}.cls-5{fill:#841e62;}.cls-6{fill:#fff;}</style></defs><g class="cls-1"><g id="Ebene_2" data-name="Ebene 2"><g id="Ebene_1-2" data-name="Ebene 1"><g class="cls-2"><rect class="cls-3" x="99.2" y="1" width="84.63" height="136.9" rx="4.03"/><rect class="cls-3" x="98.2" width="84.63" height="136.9" rx="4.03"/></g><g class="cls-4"><rect class="cls-5" x="100.2" y="2" width="84.63" height="136.9" rx="4.03"/></g><rect class="cls-6" x="99.2" y="1" width="84.63" height="136.9" rx="4.03"/><g class="cls-2"><rect class="cls-3" x="20.73" y="11.63" width="84.63" height="136.9" rx="4.03" transform="translate(-23.59 26.39) rotate(-20)"/><rect class="cls-3" x="19.73" y="10.63" width="84.63" height="136.9" rx="4.03" transform="translate(-23.31 25.99) rotate(-20)"/></g><g class="cls-4"><rect class="cls-5" x="21.73" y="12.63" width="84.63" height="136.9" rx="4.03" transform="translate(-23.87 26.79) rotate(-20)"/></g><rect class="cls-6" x="20.73" y="11.63" width="84.63" height="136.9" rx="4.03" transform="translate(-23.59 26.39) rotate(-20)"/><path class="cls-6" d="M231,121.07V24.86h-12.4c-5.59,0-8.73-3.14-8.73-8.73S213,7.4,218.57,7.4h44c5.59,0,8.73,3.14,8.73,8.73s-3.14,8.73-8.73,8.73H250.18v96.21c0,6.11-3.5,9.6-9.61,9.6S231,127.18,231,121.07Z"/><path class="cls-6" d="M267.46,121.24a19.85,19.85,0,0,1,.35-3.14L284.4,18.75c1.39-8,7-13.1,15-13.1s13.45,5.07,14.85,13.1l16.58,99.35a15.5,15.5,0,0,1,.18,2.79c0,5.94-3.15,9.78-8.73,9.78-5.76,0-9.08-3.66-10-9.25l-2.26-16.07v.35H287.19l-2.27,16.07c-.87,6.11-4.19,8.9-9.08,8.9C271.3,130.67,267.46,127.7,267.46,121.24ZM307.8,89.12,298.72,27h-.35l-8.91,62.16Z"/><path class="cls-6" d="M341.49,121.07V17c0-6.11,3.49-9.6,9.6-9.6h18.69c19.2,0,28.63,10.65,28.63,30.21v12c0,19.55-9.43,30.2-28.63,30.2H360.7v41.21c0,6.11-3.5,9.6-9.61,9.6S341.49,127.18,341.49,121.07ZM369.78,62.4c6.11,0,9.42-2.79,9.42-11.52V36.39c0-8.74-3.31-11.53-9.42-11.53H360.7V62.4Z"/><path class="cls-6" d="M408.88,121.07V17c0-6.11,3.5-9.6,9.61-9.6h18.68c19.21,0,28.63,10.65,28.63,30.21v12c0,19.55-9.42,30.2-28.63,30.2h-9.08v41.21c0,6.11-3.49,9.6-9.6,9.6S408.88,127.18,408.88,121.07ZM437.17,62.4c6.11,0,9.43-2.79,9.43-11.52V36.39c0-8.74-3.32-11.53-9.43-11.53h-9.08V62.4Z"/><path class="cls-6" d="M476.28,120V17a9.26,9.26,0,0,1,9.6-9.6H521a8.44,8.44,0,0,1,8.73,8.73A8.44,8.44,0,0,1,521,24.86h-25.5v32.3h18.69a8.73,8.73,0,1,1,0,17.46H495.48v37.54H521a8.73,8.73,0,1,1,0,17.46h-35.1A9.25,9.25,0,0,1,476.28,120Z"/><path class="cls-6" d="M539.66,122.12V20.5c0-8.73,4.89-14.15,12.57-14.15,8.2,0,12.22,4.89,14.32,12.75l15.88,61.81h.35v-66c0-5.41,3.15-8.56,8.56-8.56s8.56,3.15,8.56,8.56V119.5c0,8.38-4.2,11.17-10.13,11.17-6.64,0-9.95-3.32-12-11.35l-20.6-79.27h-.35v82.07c0,5.41-3.15,8.55-8.56,8.55S539.66,127.53,539.66,122.12Z"/></g></g></g></svg>